HIERARCHY
ROOT Hips
{
	OFFSET 0.00000 0.00000 0.00000
	CHANNELS 6 Xposition Yposition Zposition Zrotation Yrotation Xrotation 
	JOINT LHipJoint
	{
		OFFSET 0 0 0
		CHANNELS 3 Zrotation Yrotation Xrotation
		JOINT LeftUpLeg
		{
			OFFSET 1.84395 -1.68683 0.74144
			CHANNELS 3 Zrotation Yrotation Xrotation
			JOINT LeftLeg
			{
				OFFSET 2.27037 -6.23779 0.00000
				CHANNELS 3 Zrotation Yrotation Xrotation
				JOINT LeftFoot
				{
					OFFSET 2.56918 -7.05877 0.00000
					CHANNELS 3 Zrotation Yrotation Xrotation
					JOINT LeftToeBase
					{
						OFFSET 0.22276 -0.61202 1.71784
						CHANNELS 3 Zrotation Yrotation Xrotation
						End Site
						{
							OFFSET 0.00000 -0.00000 0.91613
						}
					}
				}
			}
		}
	}
	JOINT RHipJoint
	{
		OFFSET 0 0 0
		CHANNELS 3 Zrotation Yrotation Xrotation
		JOINT RightUpLeg
		{
			OFFSET -1.76833 -1.68684 0.74144
			CHANNELS 3 Zrotation Yrotation Xrotation
			JOINT RightLeg
			{
				OFFSET -2.49360 -6.85110 0.00000
				CHANNELS 3 Zrotation Yrotation Xrotation
				JOINT RightFoot
				{
					OFFSET -2.55538 -7.02085 0.00000
					CHANNELS 3 Zrotation Yrotation Xrotation
					JOINT RightToeBase
					{
						OFFSET -0.21516 -0.59115 1.68050
						CHANNELS 3 Zrotation Yrotation Xrotation
						End Site
						{
							OFFSET -0.00000 -0.00000 0.89604
						}
					}
				}
			}
		}
	}
	JOINT LowerBack
	{
		OFFSET 0 0 0
		CHANNELS 3 Zrotation Yrotation Xrotation
		JOINT Spine
		{
			OFFSET 0.06382 1.72312 -0.19613
			CHANNELS 3 Zrotation Yrotation Xrotation
			JOINT Spine1
			{
				OFFSET -0.00055 1.73507 0.23859
				CHANNELS 3 Zrotation Yrotation Xrotation
				JOINT Neck
				{
					OFFSET 0 0 0
					CHANNELS 3 Zrotation Yrotation Xrotation
					JOINT Neck1
					{
						OFFSET 0.03638 1.65562 0.09633
						CHANNELS 3 Zrotation Yrotation Xrotation
						JOINT Head
						{
							OFFSET 0.06388 1.62807 -0.32386
							CHANNELS 3 Zrotation Yrotation Xrotation
							End Site
							{
								OFFSET 0.00995 1.67644 -0.12021
							}
						}
					}
				}
				JOINT LeftShoulder
				{
					OFFSET 0 0 0
					CHANNELS 3 Zrotation Yrotation Xrotation
					JOINT LeftArm
					{
						OFFSET 3.09648 1.42991 0.28122
						CHANNELS 3 Zrotation Yrotation Xrotation
						JOINT LeftForeArm
						{
							OFFSET 5.11878 -0.00000 -0.00000
							CHANNELS 3 Zrotation Yrotation Xrotation
							JOINT LeftHand
							{
								OFFSET 3.59971 -0.00000 0.00000
								CHANNELS 3 Zrotation Yrotation Xrotation
								JOINT LeftFingerBase
								{
									OFFSET 0 0 0
									CHANNELS 3 Zrotation Yrotation Xrotation
									JOINT LeftHandIndex1
									{
										OFFSET 0.62877 -0.00000 0.00000
										CHANNELS 3 Zrotation Yrotation Xrotation
										End Site
										{
											OFFSET 0.50693 -0.00000 0.00000
										}
									}
								}
								JOINT LThumb
								{
									OFFSET 0 0 0
									CHANNELS 3 Zrotation Yrotation Xrotation
									End Site
									{
										OFFSET 0.51467 -0.00000 0.51467
									}
								}
							}
						}
					}
				}
				JOINT RightShoulder
				{
					OFFSET 0 0 0
					CHANNELS 3 Zrotation Yrotation Xrotation
					JOINT RightArm
					{
						OFFSET -3.33565 1.14597 0.05047
						CHANNELS 3 Zrotation Yrotation Xrotation
						JOINT RightForeArm
						{
							OFFSET -5.49020 -0.00000 0.00000
							CHANNELS 3 Zrotation Yrotation Xrotation
							JOINT RightHand
							{
								OFFSET -3.20659 -0.00000 -0.00000
								CHANNELS 3 Zrotation Yrotation Xrotation
								JOINT RightFingerBase
								{
									OFFSET 0 0 0
									CHANNELS 3 Zrotation Yrotation Xrotation
									JOINT RightHandIndex1
									{
										OFFSET -0.69188 -0.00000 0.00000
										CHANNELS 3 Zrotation Yrotation Xrotation
										End Site
										{
											OFFSET -0.55781 -0.00000 0.00000
										}
									}
								}
								JOINT RThumb
								{
									OFFSET 0 0 0
									CHANNELS 3 Zrotation Yrotation Xrotation
									End Site
									{
										OFFSET -0.56633 -0.00000 0.56633
									}
								}
							}
						}
					}
				}
			}
		}
	}
}
MOTION
Frames: 6
Frame Time: .0083333
0.1495 17.5986 7.7491 -8.6548 -5.4938 21.5901 0.0000 0.0000 0.0000 -11.1970 -54.8349 15.9831 0.0955 -1.9931 -5.4867 10.6163 35.2775 -73.7989 5.4092 13.8303 42.5618 0.0000 0.0000 0.0000 14.7745 32.3732 -15.0342 -0.1323 -2.3442 6.4579 1.0816 -19.7607 -16.1544 -0.0014 0.2409 -0.6619 5.6754 0.9348 5.8777 4.9576 1.7081 1.0284 1.8112 0.8166 -2.2227 -4.4237 -3.7784 -13.7409 4.8428 -4.7543 6.8694 1.8368 -2.1650 4.5094 -0.0000 -0.0000 0.0000 -156.0458 -72.7508 110.5524 7.2760 -12.3727 -0.7897 -0.0000 -0.0000 35.0912 20.2711 3.5460 1.3086 -7.1250 0.0000 -0.0000 -5.1980 33.7256 1.4422 -0.0000 -0.0000 0.0000 75.6626 75.8787 40.4301 -23.2921 34.4066 -7.3027 0.0000 0.0000 33.5763 11.3757 -68.3143 -10.5895 7.1250 -0.0000 -0.0000 96.3424 69.4342 118.6449
0.1516 17.5978 7.7486 -8.6419 -5.5159 21.5934 0.0000 0.0000 0.0000 -11.2148 -54.8467 15.9571 0.0942 -1.9799 -5.4500 10.5959 35.3468 -73.7902 5.3990 13.8196 42.5194 0.0000 0.0000 0.0000 14.7547 32.3424 -15.0520 -0.1323 -2.3447 6.4593 1.0799 -19.7366 -16.1129 -0.0022 0.3018 -0.8293 5.6813 0.9317 5.8793 4.9460 1.7041 1.0285 1.7961 0.8145 -2.2230 -4.4130 -3.9171 -14.1850 4.8002 -4.9340 7.2561 1.7977 -2.2467 4.7078 -0.0000 -0.0000 0.0000 -155.6295 -72.7993 110.4753 7.3141 -12.4350 -0.7979 -0.0000 -0.0000 35.0823 20.5179 3.4836 1.3027 -7.1250 0.0000 -0.0000 -4.9916 33.6679 1.3916 -0.0000 -0.0000 0.0000 75.5783 75.7885 40.5146 -23.4651 34.5934 -7.4006 0.0000 0.0000 33.6275 9.0022 -68.8827 -8.4066 7.1250 -0.0000 -0.0000 98.7909 69.9154 120.4988
0.1542 17.5974 7.7477 -8.5836 -5.5535 21.5916 0.0000 0.0000 0.0000 -11.3092 -54.8559 15.9595 0.0931 -1.9681 -5.4174 10.6515 35.1813 -73.8241 5.4484 13.8716 42.7255 0.0000 0.0000 0.0000 14.6753 32.3176 -15.0672 -0.1321 -2.3427 6.4537 1.0790 -19.7180 -16.0747 -0.0030 0.3559 -0.9779 5.6272 0.9281 5.8790 4.9328 1.6955 1.0299 1.8132 0.8107 -2.2226 -4.4265 -3.9689 -14.2879 4.7601 -4.9960 7.3518 1.7798 -2.2780 4.7562 0.0000 -0.0000 0.0000 -155.0637 -72.8627 110.5779 7.3969 -12.5706 -0.8158 -0.0000 -0.0000 34.8164 20.8761 3.6217 1.3801 -7.1250 0.0000 -0.0000 -4.7103 33.8273 1.2944 0.0000 -0.0000 0.0000 75.6526 75.7568 40.6541 -23.5877 34.7253 -7.4704 0.0000 0.0000 33.7734 7.7788 -69.3329 -7.2837 7.1250 -0.0000 -0.0000 100.5606 70.1223 121.9854
0.1558 17.5971 7.7465 -8.5731 -5.5772 21.5769 0.0000 0.0000 0.0000 -11.3889 -54.8422 16.0353 0.0936 -1.9730 -5.4310 10.7109 35.0376 -73.8750 5.4833 13.9083 42.8712 0.0000 0.0000 0.0000 14.6685 32.2904 -15.0614 -0.1323 -2.3446 6.4589 1.0676 -19.6476 -16.0778 -0.0031 0.3594 -0.9875 5.6009 0.9217 5.8926 4.9393 1.6861 1.0391 1.8351 0.8063 -2.2217 -4.4522 -3.9654 -14.2772 4.7695 -4.9888 7.3818 1.7875 -2.2745 4.7643 0.0000 0.0000 0.0000 -154.5777 -72.9422 110.8597 7.4919 -12.7260 -0.8366 -0.0000 -0.0000 34.0610 21.1315 3.6553 1.4115 -7.1250 0.0000 -0.0000 -4.5041 33.8723 1.2326 0.0000 0.0000 0.0000 75.6927 75.7710 40.8060 -23.7024 34.8480 -7.5358 0.0000 0.0000 33.6246 6.3559 -70.0254 -5.9764 7.1250 -0.0000 -0.0000 103.1420 70.2976 124.2671
0.1561 17.5969 7.7452 -8.5715 -5.5900 21.5785 0.0000 0.0000 0.0000 -11.4235 -54.8327 16.0892 0.0948 -1.9861 -5.4672 10.7444 34.9846 -73.9157 5.4993 13.9249 42.9376 0.0000 0.0000 0.0000 14.6635 32.2741 -15.0823 -0.1330 -2.3504 6.4752 1.0625 -19.6107 -16.0637 -0.0030 0.3554 -0.9765 5.5548 0.9227 5.8709 4.9587 1.6815 1.0589 1.8817 0.8051 -2.1910 -4.4773 -3.9556 -14.3194 4.7801 -4.9723 7.4375 1.7952 -2.2655 4.7886 -0.0000 0.0000 0.0000 -154.3023 -73.0164 111.2495 7.5800 -12.8698 -0.8561 -0.0000 -0.0000 33.1346 21.2468 3.5536 1.3805 -7.1250 0.0000 -0.0000 -4.4023 33.7677 1.2157 -0.0000 0.0000 0.0000 75.4294 75.7797 40.7668 -23.8571 35.0128 -7.6244 0.0000 0.0000 33.3291 4.6206 -70.5878 -4.3590 7.1250 -0.0000 -0.0000 105.5196 70.4979 126.2747
0.1557 17.5971 7.7440 -8.5592 -5.6009 21.6067 0.0000 0.0000 0.0000 -11.3934 -54.8392 16.0593 0.0962 -1.9999 -5.5055 10.7677 34.9592 -73.9486 5.5175 13.9439 43.0131 0.0000 0.0000 0.0000 14.6142 32.3165 -15.1293 -0.1331 -2.3518 6.4789 1.0737 -19.6730 -16.0392 -0.0027 0.3383 -0.9295 5.5117 0.9353 5.8325 4.9549 1.6917 1.0649 1.9017 0.8110 -2.1644 -5.2161 -3.8234 -13.3571 5.8346 -4.7740 6.4122 2.2776 -2.1453 4.3531 0.0000 0.0000 0.0000 -154.2359 -73.0562 111.6423 7.6360 -12.9610 -0.8686 -0.0000 -0.0000 32.4156 21.2142 3.4430 1.3354 -7.1250 0.0000 -0.0000 -4.4206 33.6482 1.2336 0.0000 0.0000 0.0000 75.8404 75.4748 40.6995 -24.2774 35.4563 -7.8669 0.0000 0.0000 33.6834 4.4257 -71.1171 -4.1884 7.1250 -0.0000 -0.0000 107.1023 70.4022 127.8695
